<svg width="131" height="41" viewBox="0 0 131 41" fill="none" xmlns="http://www.w3.org/2000/svg">
<path d="M15.8922 22.5372H22.7886C22.1449 25.3337 20.1067 26.9424 17.1795 26.9424C13.4095 26.9424 10.9728 24.4166 10.9728 20.5225C10.9728 16.7187 13.3942 14.1478 17.011 14.1478C19.1258 14.1478 20.781 15.0348 21.6698 16.6586L21.6851 16.6887H26.4513L26.4206 16.5984C25.1333 12.7044 21.6085 10.374 16.9956 10.374C14.1451 10.374 11.5399 11.3814 9.63953 13.2156C7.72388 15.0649 6.68176 17.6659 6.68176 20.5075C6.68176 26.3711 11.0341 30.6259 17.0263 30.6259C17.3175 30.6259 17.5933 30.6109 17.8692 30.5959C22.9265 30.22 26.8957 25.9651 26.8957 20.9134V19.3649H15.8769V22.5372H15.8922Z" fill="white"/>
<path d="M36.0756 21.094C34.3285 20.643 32.8266 20.2671 32.8266 19.1395C32.8266 18.2374 33.6235 17.7112 35.0335 17.7112C36.52 17.7112 37.5315 18.4629 37.6387 19.6808V19.7409H41.6386V19.6657C41.3781 16.4332 38.8954 14.4336 35.1407 14.4336C31.3861 14.4336 28.7654 16.3881 28.7654 19.1846C28.7654 22.6125 31.9531 23.3944 34.5124 24.0258C36.2595 24.4618 37.7767 24.8377 37.7767 25.9353C37.7767 26.8674 36.8418 27.4838 35.4013 27.4838C33.8994 27.4838 32.7347 26.6569 32.5967 25.4541V25.394H28.413V25.4692C28.5969 28.5212 31.5546 30.7314 35.4472 30.7314C39.2479 30.7314 41.7919 28.8069 41.7919 25.9503C41.6999 22.5223 38.5736 21.7255 36.0756 21.094Z" fill="white"/>
<path d="M51.5847 14.4336C46.7113 14.4336 43.3091 17.7864 43.3091 22.5674C43.3091 27.3635 46.6653 30.7013 51.4621 30.7013C53.7762 30.7013 55.8758 29.9195 57.4083 28.4912C59.0021 27.0027 59.845 24.9429 59.845 22.5674C59.845 17.7864 56.4428 14.4336 51.5847 14.4336ZM51.4621 27.138C49.0714 27.138 47.5389 25.3489 47.5389 22.5825C47.5389 19.2147 49.6844 18.0269 51.5234 18.0269C53.531 18.0269 55.5693 19.4402 55.5693 22.5825C55.5693 25.7248 53.5004 27.138 51.4621 27.138Z" fill="white"/>
<path d="M66.7106 14.1025C66.7106 13.2455 66.8792 12.6892 67.2316 12.3434C67.6148 11.9826 68.2431 11.8172 69.2546 11.8473H69.3312V8.40429H69.2699C66.8025 8.34415 65.0708 8.8403 63.9367 9.90777C62.9712 10.8249 62.4961 12.1931 62.4961 13.9822V14.7039H60.6877V18.0867H62.4961V30.4755H66.7259V18.0867H69.5151V14.6889H66.7259V14.1025H66.7106Z" fill="white"/>
<path d="M80.9938 18.072V14.6891H77.423V10.8252H73.2239V14.6891H71.3236V18.072H73.2239V25.5443C73.2239 28.8519 74.9097 30.4607 78.3885 30.4607H80.9938V26.9876H79.0475C77.8675 26.9876 77.423 26.5967 77.423 25.5593V18.0569H80.9938V18.072Z" fill="white"/>
<path d="M112.656 16.9894V22.1163H119.92C118.786 25.845 115.276 28.5663 111.108 28.5663H97.9433C95.5066 28.5663 93.5144 26.6268 93.5144 24.2212C93.5144 21.8307 95.4913 19.8761 97.9433 19.8761C100.38 19.8761 102.372 21.8156 102.372 24.2212H107.583C107.583 20.688 105.606 17.6059 102.664 15.9821C104.073 12.7797 107.322 10.5395 111.108 10.5395C113.437 10.5395 115.644 11.3965 117.345 12.9451C117.483 13.0653 117.606 13.1856 117.728 13.3059L121.498 9.75767C121.314 9.56222 121.115 9.3818 120.916 9.18634C118.234 6.7507 114.755 5.4126 111.108 5.4126C104.87 5.4126 99.5525 9.32166 97.5449 14.7643C92.4109 14.9748 88.2885 19.1244 88.2885 24.2212C88.2885 29.4383 92.6102 33.6781 97.928 33.6781H111.108C119.046 33.6781 125.513 27.3334 125.513 19.5454V16.9894H112.656Z" fill="#4B7EFE"/>
</svg>
