<svg width="129" height="99" viewBox="0 0 129 99" fill="none" xmlns="http://www.w3.org/2000/svg">
<path d="M84.4422 40.5479V58.5048H109.615C105.685 71.5644 93.5237 81.0957 79.0782 81.0957H33.4582C25.014 81.0957 18.1099 74.3027 18.1099 65.8771C18.1099 57.5043 24.9609 50.6585 33.4582 50.6585C41.9024 50.6585 48.8065 57.4516 48.8065 65.8771H66.8633C66.8633 53.5021 60.0124 42.7069 49.8156 37.0197C54.7015 25.8032 65.9605 17.9569 79.0782 17.9569C87.1507 17.9569 94.7983 20.9585 100.693 26.3824C101.171 26.8037 101.596 27.225 102.021 27.6463L115.086 15.2186C114.448 14.534 113.758 13.9021 113.068 13.2176C103.774 4.6867 91.718 0 79.0782 0C57.4632 0 39.0346 13.6915 32.0774 32.7543C14.2861 33.4915 0 48.0255 0 65.8771C0 84.15 14.9765 99 33.4051 99H79.0782C106.588 99 129 76.7777 129 49.5V40.5479H84.4422Z" fill="#D0D6DE"/>
</svg>
